<mxfile host="app.diagrams.net" modified="2024-03-07T13:29:55.148Z" agent="Mozilla/5.0 (Macintosh; Intel Mac OS X 10.15; rv:123.0) Gecko/20100101 Firefox/123.0" etag="aEd4G6Q4dPypBKfPmDh0" version="23.1.1" type="github">
  <diagram name="Page-1" id="xtW_IwAfQOxbv-dFsDVF">
    <mxGraphModel dx="1011" dy="755" grid="1" gridSize="10" guides="1" tooltips="1" connect="1" arrows="1" fold="1" page="1" pageScale="1" pageWidth="850" pageHeight="1100" math="0" shadow="0">
      <root>
        <mxCell id="0" />
        <mxCell id="1" parent="0" />
        <mxCell id="xERr7fgKE-sxGU6G2vDV-1" value="Integratie service" style="swimlane;" vertex="1" parent="1">
          <mxGeometry width="200" height="2200" as="geometry" />
        </mxCell>
        <mxCell id="xERr7fgKE-sxGU6G2vDV-9" style="edgeStyle=orthogonalEdgeStyle;rounded=0;orthogonalLoop=1;jettySize=auto;html=1;" edge="1" parent="xERr7fgKE-sxGU6G2vDV-1" source="xERr7fgKE-sxGU6G2vDV-5" target="xERr7fgKE-sxGU6G2vDV-8">
          <mxGeometry relative="1" as="geometry" />
        </mxCell>
        <mxCell id="xERr7fgKE-sxGU6G2vDV-5" value="Start&lt;br&gt;websocket server" style="rounded=1;whiteSpace=wrap;html=1;" vertex="1" parent="xERr7fgKE-sxGU6G2vDV-1">
          <mxGeometry x="40" y="140" width="120" height="60" as="geometry" />
        </mxCell>
        <mxCell id="xERr7fgKE-sxGU6G2vDV-7" style="edgeStyle=orthogonalEdgeStyle;rounded=0;orthogonalLoop=1;jettySize=auto;html=1;" edge="1" parent="xERr7fgKE-sxGU6G2vDV-1" source="xERr7fgKE-sxGU6G2vDV-6" target="xERr7fgKE-sxGU6G2vDV-5">
          <mxGeometry relative="1" as="geometry" />
        </mxCell>
        <mxCell id="xERr7fgKE-sxGU6G2vDV-6" value="" style="ellipse;shape=doubleEllipse;html=1;dashed=0;whiteSpace=wrap;aspect=fixed;" vertex="1" parent="xERr7fgKE-sxGU6G2vDV-1">
          <mxGeometry x="70" y="40" width="60" height="60" as="geometry" />
        </mxCell>
        <mxCell id="xERr7fgKE-sxGU6G2vDV-8" value="Send init devtools&lt;br&gt;event" style="rounded=1;whiteSpace=wrap;html=1;" vertex="1" parent="xERr7fgKE-sxGU6G2vDV-1">
          <mxGeometry x="40" y="240" width="120" height="60" as="geometry" />
        </mxCell>
        <mxCell id="xERr7fgKE-sxGU6G2vDV-14" value="Inject script" style="rounded=1;whiteSpace=wrap;html=1;" vertex="1" parent="xERr7fgKE-sxGU6G2vDV-1">
          <mxGeometry x="40" y="440" width="120" height="60" as="geometry" />
        </mxCell>
        <mxCell id="xERr7fgKE-sxGU6G2vDV-23" value="Process user interface tree" style="rounded=1;whiteSpace=wrap;html=1;" vertex="1" parent="xERr7fgKE-sxGU6G2vDV-1">
          <mxGeometry x="40" y="800" width="120" height="60" as="geometry" />
        </mxCell>
        <mxCell id="xERr7fgKE-sxGU6G2vDV-38" style="edgeStyle=orthogonalEdgeStyle;rounded=0;orthogonalLoop=1;jettySize=auto;html=1;" edge="1" parent="xERr7fgKE-sxGU6G2vDV-1" source="xERr7fgKE-sxGU6G2vDV-34" target="xERr7fgKE-sxGU6G2vDV-37">
          <mxGeometry relative="1" as="geometry" />
        </mxCell>
        <mxCell id="xERr7fgKE-sxGU6G2vDV-39" value="Yes" style="edgeLabel;html=1;align=center;verticalAlign=middle;resizable=0;points=[];" vertex="1" connectable="0" parent="xERr7fgKE-sxGU6G2vDV-38">
          <mxGeometry x="-0.3556" y="1" relative="1" as="geometry">
            <mxPoint x="9" as="offset" />
          </mxGeometry>
        </mxCell>
        <mxCell id="xERr7fgKE-sxGU6G2vDV-40" style="edgeStyle=orthogonalEdgeStyle;rounded=0;orthogonalLoop=1;jettySize=auto;html=1;entryX=0;entryY=0.5;entryDx=0;entryDy=0;" edge="1" parent="xERr7fgKE-sxGU6G2vDV-1" source="xERr7fgKE-sxGU6G2vDV-34" target="xERr7fgKE-sxGU6G2vDV-23">
          <mxGeometry relative="1" as="geometry">
            <Array as="points">
              <mxPoint x="20" y="980" />
              <mxPoint x="20" y="830" />
            </Array>
          </mxGeometry>
        </mxCell>
        <mxCell id="xERr7fgKE-sxGU6G2vDV-41" value="No" style="edgeLabel;html=1;align=center;verticalAlign=middle;resizable=0;points=[];" vertex="1" connectable="0" parent="xERr7fgKE-sxGU6G2vDV-40">
          <mxGeometry x="0.2143" y="-1" relative="1" as="geometry">
            <mxPoint as="offset" />
          </mxGeometry>
        </mxCell>
        <mxCell id="xERr7fgKE-sxGU6G2vDV-34" value="Has Input&lt;br&gt;elements" style="strokeWidth=2;html=1;shape=mxgraph.flowchart.decision;whiteSpace=wrap;" vertex="1" parent="xERr7fgKE-sxGU6G2vDV-1">
          <mxGeometry x="50" y="930" width="100" height="100" as="geometry" />
        </mxCell>
        <mxCell id="xERr7fgKE-sxGU6G2vDV-35" style="edgeStyle=orthogonalEdgeStyle;rounded=0;orthogonalLoop=1;jettySize=auto;html=1;entryX=0.5;entryY=0;entryDx=0;entryDy=0;entryPerimeter=0;" edge="1" parent="xERr7fgKE-sxGU6G2vDV-1" source="xERr7fgKE-sxGU6G2vDV-23" target="xERr7fgKE-sxGU6G2vDV-34">
          <mxGeometry relative="1" as="geometry" />
        </mxCell>
        <mxCell id="xERr7fgKE-sxGU6G2vDV-37" value="Send prompt to ChatGPT" style="rounded=1;whiteSpace=wrap;html=1;" vertex="1" parent="xERr7fgKE-sxGU6G2vDV-1">
          <mxGeometry x="40" y="1110" width="120" height="60" as="geometry" />
        </mxCell>
        <mxCell id="xERr7fgKE-sxGU6G2vDV-49" style="edgeStyle=orthogonalEdgeStyle;rounded=0;orthogonalLoop=1;jettySize=auto;html=1;" edge="1" parent="xERr7fgKE-sxGU6G2vDV-1" source="xERr7fgKE-sxGU6G2vDV-44" target="xERr7fgKE-sxGU6G2vDV-48">
          <mxGeometry relative="1" as="geometry" />
        </mxCell>
        <mxCell id="xERr7fgKE-sxGU6G2vDV-44" value="Convert prompt&lt;br&gt;to event" style="rounded=1;whiteSpace=wrap;html=1;" vertex="1" parent="xERr7fgKE-sxGU6G2vDV-1">
          <mxGeometry x="40" y="1240" width="120" height="60" as="geometry" />
        </mxCell>
        <mxCell id="xERr7fgKE-sxGU6G2vDV-48" value="Send event &lt;br&gt;to device" style="rounded=1;whiteSpace=wrap;html=1;" vertex="1" parent="xERr7fgKE-sxGU6G2vDV-1">
          <mxGeometry x="40" y="1370" width="120" height="60" as="geometry" />
        </mxCell>
        <mxCell id="xERr7fgKE-sxGU6G2vDV-56" value="Error &lt;br&gt;occured" style="strokeWidth=2;html=1;shape=mxgraph.flowchart.decision;whiteSpace=wrap;" vertex="1" parent="xERr7fgKE-sxGU6G2vDV-1">
          <mxGeometry x="50" y="1570" width="100" height="100" as="geometry" />
        </mxCell>
        <mxCell id="xERr7fgKE-sxGU6G2vDV-73" style="edgeStyle=orthogonalEdgeStyle;rounded=0;orthogonalLoop=1;jettySize=auto;html=1;entryX=0.5;entryY=0;entryDx=0;entryDy=0;" edge="1" parent="xERr7fgKE-sxGU6G2vDV-1" source="xERr7fgKE-sxGU6G2vDV-61" target="xERr7fgKE-sxGU6G2vDV-75">
          <mxGeometry relative="1" as="geometry">
            <mxPoint x="99.99999999999977" y="1920" as="targetPoint" />
          </mxGeometry>
        </mxCell>
        <mxCell id="xERr7fgKE-sxGU6G2vDV-74" value="Yes" style="edgeLabel;html=1;align=center;verticalAlign=middle;resizable=0;points=[];" vertex="1" connectable="0" parent="xERr7fgKE-sxGU6G2vDV-73">
          <mxGeometry x="0.2273" y="1" relative="1" as="geometry">
            <mxPoint x="-1" y="-15" as="offset" />
          </mxGeometry>
        </mxCell>
        <mxCell id="xERr7fgKE-sxGU6G2vDV-88" style="edgeStyle=orthogonalEdgeStyle;rounded=0;orthogonalLoop=1;jettySize=auto;html=1;entryX=0;entryY=0.5;entryDx=0;entryDy=0;" edge="1" parent="xERr7fgKE-sxGU6G2vDV-1" source="xERr7fgKE-sxGU6G2vDV-61" target="xERr7fgKE-sxGU6G2vDV-37">
          <mxGeometry relative="1" as="geometry">
            <Array as="points">
              <mxPoint x="20" y="1920" />
              <mxPoint x="20" y="1140" />
            </Array>
          </mxGeometry>
        </mxCell>
        <mxCell id="xERr7fgKE-sxGU6G2vDV-89" value="No" style="edgeLabel;html=1;align=center;verticalAlign=middle;resizable=0;points=[];" vertex="1" connectable="0" parent="xERr7fgKE-sxGU6G2vDV-88">
          <mxGeometry x="-0.4057" relative="1" as="geometry">
            <mxPoint as="offset" />
          </mxGeometry>
        </mxCell>
        <mxCell id="xERr7fgKE-sxGU6G2vDV-61" value="Is End" style="strokeWidth=2;html=1;shape=mxgraph.flowchart.decision;whiteSpace=wrap;" vertex="1" parent="xERr7fgKE-sxGU6G2vDV-1">
          <mxGeometry x="50" y="1870" width="100" height="100" as="geometry" />
        </mxCell>
        <mxCell id="xERr7fgKE-sxGU6G2vDV-77" style="edgeStyle=orthogonalEdgeStyle;rounded=0;orthogonalLoop=1;jettySize=auto;html=1;entryX=0.5;entryY=0;entryDx=0;entryDy=0;" edge="1" parent="xERr7fgKE-sxGU6G2vDV-1" source="xERr7fgKE-sxGU6G2vDV-75" target="xERr7fgKE-sxGU6G2vDV-76">
          <mxGeometry relative="1" as="geometry" />
        </mxCell>
        <mxCell id="xERr7fgKE-sxGU6G2vDV-75" value="Log&lt;br&gt;test coverage and " style="rounded=1;whiteSpace=wrap;html=1;" vertex="1" parent="xERr7fgKE-sxGU6G2vDV-1">
          <mxGeometry x="40" y="2030" width="120" height="60" as="geometry" />
        </mxCell>
        <mxCell id="xERr7fgKE-sxGU6G2vDV-76" value="" style="ellipse;html=1;shape=endState;fillColor=#000000;strokeColor=#ff0000;" vertex="1" parent="xERr7fgKE-sxGU6G2vDV-1">
          <mxGeometry x="85" y="2120" width="30" height="30" as="geometry" />
        </mxCell>
        <mxCell id="xERr7fgKE-sxGU6G2vDV-90" value="" style="rounded=1;whiteSpace=wrap;html=1;" vertex="1" parent="xERr7fgKE-sxGU6G2vDV-1">
          <mxGeometry x="40" y="1740" width="120" height="60" as="geometry" />
        </mxCell>
        <mxCell id="xERr7fgKE-sxGU6G2vDV-2" value="Simulator" style="swimlane;" vertex="1" parent="1">
          <mxGeometry x="360" width="160" height="2200" as="geometry" />
        </mxCell>
        <mxCell id="xERr7fgKE-sxGU6G2vDV-12" value="Init Devtools" style="rounded=1;whiteSpace=wrap;html=1;" vertex="1" parent="xERr7fgKE-sxGU6G2vDV-2">
          <mxGeometry x="20" y="390" width="120" height="60" as="geometry" />
        </mxCell>
        <mxCell id="xERr7fgKE-sxGU6G2vDV-22" style="edgeStyle=orthogonalEdgeStyle;rounded=0;orthogonalLoop=1;jettySize=auto;html=1;entryX=0.5;entryY=0;entryDx=0;entryDy=0;" edge="1" parent="xERr7fgKE-sxGU6G2vDV-2" source="xERr7fgKE-sxGU6G2vDV-18" target="xERr7fgKE-sxGU6G2vDV-20">
          <mxGeometry relative="1" as="geometry" />
        </mxCell>
        <mxCell id="xERr7fgKE-sxGU6G2vDV-18" value="Evaluate&lt;br&gt;script" style="rounded=1;whiteSpace=wrap;html=1;" vertex="1" parent="xERr7fgKE-sxGU6G2vDV-2">
          <mxGeometry x="20" y="580" width="120" height="60" as="geometry" />
        </mxCell>
        <mxCell id="xERr7fgKE-sxGU6G2vDV-20" value="Send user interface tree" style="rounded=1;whiteSpace=wrap;html=1;" vertex="1" parent="xERr7fgKE-sxGU6G2vDV-2">
          <mxGeometry x="20" y="680" width="120" height="60" as="geometry" />
        </mxCell>
        <mxCell id="xERr7fgKE-sxGU6G2vDV-52" value="Execute event" style="rounded=1;whiteSpace=wrap;html=1;" vertex="1" parent="xERr7fgKE-sxGU6G2vDV-2">
          <mxGeometry x="20" y="1500" width="120" height="60" as="geometry" />
        </mxCell>
        <mxCell id="xERr7fgKE-sxGU6G2vDV-3" value="Expo" style="swimlane;" vertex="1" parent="1">
          <mxGeometry x="200" width="160" height="2200" as="geometry" />
        </mxCell>
        <mxCell id="xERr7fgKE-sxGU6G2vDV-10" value="Send &lt;br&gt;RTCMenuDev" style="rounded=1;whiteSpace=wrap;html=1;" vertex="1" parent="xERr7fgKE-sxGU6G2vDV-3">
          <mxGeometry x="20" y="310" width="120" height="60" as="geometry" />
        </mxCell>
        <mxCell id="xERr7fgKE-sxGU6G2vDV-16" value="Proxy request to simulator" style="rounded=1;whiteSpace=wrap;html=1;" vertex="1" parent="xERr7fgKE-sxGU6G2vDV-3">
          <mxGeometry x="20" y="520" width="120" height="60" as="geometry" />
        </mxCell>
        <mxCell id="xERr7fgKE-sxGU6G2vDV-50" value="Proxy event&lt;br&gt;to simulator" style="rounded=1;whiteSpace=wrap;html=1;" vertex="1" parent="xERr7fgKE-sxGU6G2vDV-3">
          <mxGeometry x="20" y="1440" width="120" height="60" as="geometry" />
        </mxCell>
        <mxCell id="xERr7fgKE-sxGU6G2vDV-4" value="Open AI" style="swimlane;" vertex="1" parent="1">
          <mxGeometry x="520" width="200" height="2200" as="geometry" />
        </mxCell>
        <mxCell id="xERr7fgKE-sxGU6G2vDV-42" value="Generate &lt;br&gt;Response" style="rounded=1;whiteSpace=wrap;html=1;" vertex="1" parent="xERr7fgKE-sxGU6G2vDV-4">
          <mxGeometry x="40" y="1170" width="120" height="60" as="geometry" />
        </mxCell>
        <mxCell id="xERr7fgKE-sxGU6G2vDV-84" value="Is feature?" style="strokeWidth=2;html=1;shape=mxgraph.flowchart.decision;whiteSpace=wrap;" vertex="1" parent="xERr7fgKE-sxGU6G2vDV-4">
          <mxGeometry x="50" y="1720" width="100" height="100" as="geometry" />
        </mxCell>
        <mxCell id="xERr7fgKE-sxGU6G2vDV-11" style="edgeStyle=orthogonalEdgeStyle;rounded=0;orthogonalLoop=1;jettySize=auto;html=1;entryX=0;entryY=0.5;entryDx=0;entryDy=0;" edge="1" parent="1" source="xERr7fgKE-sxGU6G2vDV-8" target="xERr7fgKE-sxGU6G2vDV-10">
          <mxGeometry relative="1" as="geometry">
            <Array as="points">
              <mxPoint x="120" y="340" />
            </Array>
          </mxGeometry>
        </mxCell>
        <mxCell id="xERr7fgKE-sxGU6G2vDV-13" style="edgeStyle=orthogonalEdgeStyle;rounded=0;orthogonalLoop=1;jettySize=auto;html=1;entryX=0;entryY=0.5;entryDx=0;entryDy=0;" edge="1" parent="1" source="xERr7fgKE-sxGU6G2vDV-10" target="xERr7fgKE-sxGU6G2vDV-12">
          <mxGeometry relative="1" as="geometry">
            <Array as="points">
              <mxPoint x="280" y="420" />
            </Array>
          </mxGeometry>
        </mxCell>
        <mxCell id="xERr7fgKE-sxGU6G2vDV-15" style="edgeStyle=orthogonalEdgeStyle;rounded=0;orthogonalLoop=1;jettySize=auto;html=1;entryX=1;entryY=0.5;entryDx=0;entryDy=0;" edge="1" parent="1" source="xERr7fgKE-sxGU6G2vDV-12" target="xERr7fgKE-sxGU6G2vDV-14">
          <mxGeometry relative="1" as="geometry">
            <Array as="points">
              <mxPoint x="440" y="470" />
            </Array>
          </mxGeometry>
        </mxCell>
        <mxCell id="xERr7fgKE-sxGU6G2vDV-17" style="edgeStyle=orthogonalEdgeStyle;rounded=0;orthogonalLoop=1;jettySize=auto;html=1;entryX=0;entryY=0.5;entryDx=0;entryDy=0;" edge="1" parent="1" source="xERr7fgKE-sxGU6G2vDV-14" target="xERr7fgKE-sxGU6G2vDV-16">
          <mxGeometry relative="1" as="geometry">
            <Array as="points">
              <mxPoint x="120" y="550" />
            </Array>
          </mxGeometry>
        </mxCell>
        <mxCell id="xERr7fgKE-sxGU6G2vDV-19" style="edgeStyle=orthogonalEdgeStyle;rounded=0;orthogonalLoop=1;jettySize=auto;html=1;entryX=0;entryY=0.5;entryDx=0;entryDy=0;" edge="1" parent="1" source="xERr7fgKE-sxGU6G2vDV-16" target="xERr7fgKE-sxGU6G2vDV-18">
          <mxGeometry relative="1" as="geometry">
            <Array as="points">
              <mxPoint x="280" y="610" />
            </Array>
          </mxGeometry>
        </mxCell>
        <mxCell id="xERr7fgKE-sxGU6G2vDV-24" style="edgeStyle=orthogonalEdgeStyle;rounded=0;orthogonalLoop=1;jettySize=auto;html=1;" edge="1" parent="1" source="xERr7fgKE-sxGU6G2vDV-20" target="xERr7fgKE-sxGU6G2vDV-23">
          <mxGeometry relative="1" as="geometry" />
        </mxCell>
        <mxCell id="xERr7fgKE-sxGU6G2vDV-43" style="edgeStyle=orthogonalEdgeStyle;rounded=0;orthogonalLoop=1;jettySize=auto;html=1;" edge="1" parent="1" source="xERr7fgKE-sxGU6G2vDV-37" target="xERr7fgKE-sxGU6G2vDV-42">
          <mxGeometry relative="1" as="geometry">
            <mxPoint x="560" y="1200" as="targetPoint" />
            <Array as="points">
              <mxPoint x="100" y="1200" />
            </Array>
          </mxGeometry>
        </mxCell>
        <mxCell id="xERr7fgKE-sxGU6G2vDV-47" style="edgeStyle=orthogonalEdgeStyle;rounded=0;orthogonalLoop=1;jettySize=auto;html=1;entryX=1;entryY=0.5;entryDx=0;entryDy=0;" edge="1" parent="1" source="xERr7fgKE-sxGU6G2vDV-42" target="xERr7fgKE-sxGU6G2vDV-44">
          <mxGeometry relative="1" as="geometry">
            <Array as="points">
              <mxPoint x="620" y="1270" />
            </Array>
          </mxGeometry>
        </mxCell>
        <mxCell id="xERr7fgKE-sxGU6G2vDV-51" style="edgeStyle=orthogonalEdgeStyle;rounded=0;orthogonalLoop=1;jettySize=auto;html=1;entryX=0;entryY=0.5;entryDx=0;entryDy=0;" edge="1" parent="1" source="xERr7fgKE-sxGU6G2vDV-48" target="xERr7fgKE-sxGU6G2vDV-50">
          <mxGeometry relative="1" as="geometry">
            <Array as="points">
              <mxPoint x="120" y="1470" />
            </Array>
          </mxGeometry>
        </mxCell>
        <mxCell id="xERr7fgKE-sxGU6G2vDV-54" style="edgeStyle=orthogonalEdgeStyle;rounded=0;orthogonalLoop=1;jettySize=auto;html=1;entryX=0;entryY=0.25;entryDx=0;entryDy=0;" edge="1" parent="1" source="xERr7fgKE-sxGU6G2vDV-50" target="xERr7fgKE-sxGU6G2vDV-52">
          <mxGeometry relative="1" as="geometry">
            <Array as="points">
              <mxPoint x="280" y="1515" />
            </Array>
          </mxGeometry>
        </mxCell>
        <mxCell id="xERr7fgKE-sxGU6G2vDV-57" style="edgeStyle=orthogonalEdgeStyle;rounded=0;orthogonalLoop=1;jettySize=auto;html=1;entryX=0.5;entryY=0;entryDx=0;entryDy=0;entryPerimeter=0;exitX=0;exitY=0.75;exitDx=0;exitDy=0;" edge="1" parent="1" source="xERr7fgKE-sxGU6G2vDV-52" target="xERr7fgKE-sxGU6G2vDV-56">
          <mxGeometry relative="1" as="geometry">
            <Array as="points">
              <mxPoint x="100" y="1545" />
            </Array>
          </mxGeometry>
        </mxCell>
        <mxCell id="xERr7fgKE-sxGU6G2vDV-86" style="edgeStyle=orthogonalEdgeStyle;rounded=0;orthogonalLoop=1;jettySize=auto;html=1;entryX=1;entryY=0.5;entryDx=0;entryDy=0;entryPerimeter=0;" edge="1" parent="1" source="xERr7fgKE-sxGU6G2vDV-84" target="xERr7fgKE-sxGU6G2vDV-61">
          <mxGeometry relative="1" as="geometry">
            <Array as="points">
              <mxPoint x="620" y="1920" />
            </Array>
          </mxGeometry>
        </mxCell>
        <mxCell id="xERr7fgKE-sxGU6G2vDV-87" value="Yes" style="edgeLabel;html=1;align=center;verticalAlign=middle;resizable=0;points=[];" vertex="1" connectable="0" parent="xERr7fgKE-sxGU6G2vDV-86">
          <mxGeometry x="-0.1547" y="6" relative="1" as="geometry">
            <mxPoint x="-1" y="-6" as="offset" />
          </mxGeometry>
        </mxCell>
        <mxCell id="xERr7fgKE-sxGU6G2vDV-79" style="edgeStyle=orthogonalEdgeStyle;rounded=0;orthogonalLoop=1;jettySize=auto;html=1;entryX=0.5;entryY=0;entryDx=0;entryDy=0;entryPerimeter=0;exitX=1;exitY=0.5;exitDx=0;exitDy=0;exitPerimeter=0;" edge="1" parent="1" source="xERr7fgKE-sxGU6G2vDV-56" target="xERr7fgKE-sxGU6G2vDV-84">
          <mxGeometry relative="1" as="geometry">
            <mxPoint x="100" y="1720" as="targetPoint" />
            <Array as="points">
              <mxPoint x="620" y="1620" />
            </Array>
          </mxGeometry>
        </mxCell>
        <mxCell id="xERr7fgKE-sxGU6G2vDV-80" value="Yes" style="edgeLabel;html=1;align=center;verticalAlign=middle;resizable=0;points=[];" vertex="1" connectable="0" parent="xERr7fgKE-sxGU6G2vDV-79">
          <mxGeometry x="0.0031" y="1" relative="1" as="geometry">
            <mxPoint as="offset" />
          </mxGeometry>
        </mxCell>
        <mxCell id="xERr7fgKE-sxGU6G2vDV-91" style="edgeStyle=orthogonalEdgeStyle;rounded=0;orthogonalLoop=1;jettySize=auto;html=1;entryX=1;entryY=0.5;entryDx=0;entryDy=0;" edge="1" parent="1" source="xERr7fgKE-sxGU6G2vDV-84" target="xERr7fgKE-sxGU6G2vDV-90">
          <mxGeometry relative="1" as="geometry" />
        </mxCell>
      </root>
    </mxGraphModel>
  </diagram>
</mxfile>
